<?xml version="1.0" standalone="no"?><!DOCTYPE svg PUBLIC "-//W3C//DTD SVG 1.1//EN" "http://www.w3.org/Graphics/SVG/1.1/DTD/svg11.dtd"><svg t="1725170064511" class="icon" viewBox="0 0 1024 1024" version="1.1" xmlns="http://www.w3.org/2000/svg" p-id="10902" data-spm-anchor-id="a313x.search_index.0.i67.63d53a81VitxPN" xmlns:xlink="http://www.w3.org/1999/xlink" width="32" height="32"><path d="M930.986667 450.773333l2.133333-2.986666 1.92-4.266667c0-1.066667 1.066667-2.133333 1.493333-3.413333a27.52 27.52 0 0 0 0-4.053334 22.613333 22.613333 0 0 0 0-4.053333 77.226667 77.226667 0 0 0 0-8.106667 13.44 13.44 0 0 0 0-4.053333 26.666667 26.666667 0 0 0 0-4.053333 24.533333 24.533333 0 0 0-1.28-3.626667 35.626667 35.626667 0 0 0-1.706666-4.266667l-1.066667-2.56-2.773333-4.266666-170.666667-213.333334-1.92-2.133333-2.346667-2.56-3.84-2.986667-2.773333-1.92-4.266667-2.346666-3.413333-1.28-4.266667-1.493334H288l-4.053333 1.493334-3.413334 1.28-4.266666 2.346666-2.773334 1.92-3.626666 2.986667-2.56 2.56-1.92 2.133333-170.666667 213.333334-2.773333 4.266666-1.706667 2.986667a35.626667 35.626667 0 0 0-1.706667 4.266667 24.533333 24.533333 0 0 0-1.28 3.626666 26.666667 26.666667 0 0 0 0 4.053334 13.44 13.44 0 0 0 0 4.053333 77.226667 77.226667 0 0 0 0 8.106667 22.613333 22.613333 0 0 0 0 4.053333 27.52 27.52 0 0 0 0 4.053333c0 1.28 1.066667 2.346667 1.493334 3.413334l1.92 4.266666 2.133333 2.986667 2.773333 3.84 384 426.666667 1.706667 1.493333 1.493333 1.706667 2.133334 1.706666 2.986666 2.133334 4.48 2.56 2.773334 1.28a32.64 32.64 0 0 0 5.546666 1.706666h2.346667A36.693333 36.693333 0 0 0 512 896a36.693333 36.693333 0 0 0 8.32 0h2.346667a32.64 32.64 0 0 0 5.546666-1.706667l2.773334-1.28 4.48-2.56 2.986666-2.133333 2.133334-1.706667 1.493333-1.706666 1.706667-1.493334 384-426.666666zM512 789.333333L183.893333 425.173333 320 256h384l135.253333 169.173333z" p-id="10903" data-spm-anchor-id="a313x.search_index.0.i68.63d53a81VitxPN" class="selected" fill="#2c2c2c"></path><path d="M320 384m42.666667 0l298.666666 0q42.666667 0 42.666667 42.666667l0 0q0 42.666667-42.666667 42.666666l-298.666666 0q-42.666667 0-42.666667-42.666666l0 0q0-42.666667 42.666667-42.666667Z" p-id="10904" data-spm-anchor-id="a313x.search_index.0.i64.63d53a81VitxPN" class="" fill="#409eff"></path></svg>